<?xml version="1.0" encoding="utf-8"?>
<!-- Generator: Adobe Illustrator 21.0.0, SVG Export Plug-In . SVG Version: 6.00 Build 0)  -->
<svg version="1.1" id="Layer_1" xmlns="http://www.w3.org/2000/svg" xmlns:xlink="http://www.w3.org/1999/xlink" x="0px" y="0px"
	 width="40px" height="40px" viewBox="0 0 40 40" style="enable-background:new 0 0 40 40;" xml:space="preserve">
<path d="M32,3.5C32,3.5,32,3.5,32,3.5c-0.1-0.2-0.2-0.3-0.3-0.3L18.5,0.4c-0.2,0-0.4,0.1-0.5,0.3c0,0,0,0,0,0c0,0,0,0-0.1,0.1
	c-0.2,0.5-0.6,1.8-0.9,2.9c-0.1,0.5-0.3,0.9-0.3,1.2c-0.3,0.9-0.5,1.7-0.7,2.5c-0.5,2.5-1,5.1-0.4,7.7c0.6,2.4,1.7,5.3,2.6,6.8
	c0,0.1,0.1,0.3,0.1,0.4c0.2,0.6,0.3,1.2,0.3,2.4c0,0.3,0,0.6,0,0.8c0,1,0,1.6-0.4,3.7c-0.5,2.6-1.2,3-2.1,3.7
	c-0.2,0.1-0.3,0.3-0.5,0.4c-0.1,0-0.1,0.1-0.2,0.1C12.4,32.9,9,32.8,8.7,34c-0.3,1.5,5.1,3.3,8.8,4.1c2.4,0.5,4.7,0.8,6.5,0.8
	c0,0,0,0,0.1,0c1.9,0,3-0.3,3.1-1c0.2-1.2-2.9-2.5-6.1-3.4c0-0.1-0.1-0.1-0.1-0.2c-0.1-0.2-0.2-0.4-0.3-0.6c-0.6-1-1-1.7-0.4-4.2
	c0.4-2,0.7-2.6,1.1-3.5c0.1-0.2,0.2-0.5,0.3-0.8c0.5-1.2,0.9-1.6,1.3-2.1c0.1-0.1,0.2-0.2,0.3-0.3c1.5-1,3.7-3.2,5.1-5.1
	c1.6-2.1,2.2-4.7,2.8-7.2c0.2-0.8,0.3-1.7,0.4-2.6c0-0.3,0.1-0.7,0.2-1.2c0.2-1.1,0.4-2.5,0.4-3C32.1,3.6,32,3.6,32,3.5z M31.3,3.9
	c0,0.5-0.2,1.5-0.3,2.3c-0.1,0.5-0.1,0.9-0.2,1.2c-0.1,0.7-0.2,1.3-0.3,2c-0.2,0.9-0.4,1.7-0.7,2.5l-1.2-0.3l-0.1,0.2l1.1,0.2
	c-0.1,0.2-0.1,0.3-0.2,0.5l-2.1-0.5l-0.1,0.2l2.1,0.4c-0.1,0.2-0.1,0.3-0.2,0.5l-2.9-0.6l-0.1,0.2l2.9,0.6C29,13.7,29,13.9,28.9,14
	L25,13.2L25,13.5l3.8,0.8c-0.1,0.2-0.2,0.3-0.2,0.5l-11.7-2.5c0-0.2,0-0.4,0-0.6l7.2,1.5L24,13l-7.2-1.5c0-0.2,0-0.4,0-0.5l4.9,1
	l0.1-0.2l-4.9-1.1c0-0.2,0-0.4,0-0.5l2.3,0.5l0.1-0.2l-2.4-0.5c0.1-1.1,0.2-2.2,0.5-3.3c0.1-0.7,0.3-1.3,0.5-1.9
	c0.1-0.2,0.2-0.6,0.3-1.1c0.2-0.8,0.5-1.8,0.6-2.2L31.3,3.9z M27.7,16.2L17,13.9c0-0.2,0-0.4-0.1-0.6L28,15.7
	C27.9,15.9,27.8,16,27.7,16.2z M27.2,16.9l-10.1-2.2c0-0.2-0.1-0.4-0.1-0.6l10.5,2.3C27.5,16.6,27.4,16.7,27.2,16.9z M26.7,17.6
	l-9.4-2c-0.1-0.2-0.1-0.4-0.1-0.6l9.9,2.1C27,17.3,26.8,17.4,26.7,17.6z M26.1,18.3l-8.5-1.8c-0.1-0.2-0.1-0.4-0.2-0.6l9.1,2
	C26.4,18,26.3,18.1,26.1,18.3z M25.4,18.9L18,17.3c-0.1-0.2-0.2-0.4-0.3-0.6l8.2,1.8C25.8,18.6,25.6,18.8,25.4,18.9z M23.5,20.1
	l-4.3-0.9c-0.2-0.2-0.4-0.4-0.6-0.7l5.6,1.2C24,19.9,23.8,20,23.5,20.1z M23.1,20.3c-0.6,0.2-1.2,0.2-1.8,0.1
	c-0.6-0.1-1.2-0.4-1.7-0.8L23.1,20.3z M18.5,18.2c-0.1-0.2-0.2-0.4-0.4-0.6l7.1,1.5c-0.2,0.2-0.4,0.3-0.6,0.4L18.5,18.2z M28.1,15.5
	l-11.2-2.4c0-0.2,0-0.4-0.1-0.6L28.4,15C28.3,15.2,28.2,15.3,28.1,15.5z"/>
</svg>
