<?xml version="1.0" encoding="iso-8859-1"?>
<!-- Generator: Adobe Illustrator 21.0.0, SVG Export Plug-In . SVG Version: 6.00 Build 0)  -->
<svg version="1.1" id="Layer_1" xmlns="http://www.w3.org/2000/svg" xmlns:xlink="http://www.w3.org/1999/xlink" x="0px" y="0px"
	 width="100px" height="100px" viewBox="0 0 100 100" enable-background="new 0 0 100 100" xml:space="preserve">
<g>
	<path opacity="0.64" fill="#BF4916" enable-background="new    " d="M41.117,26.53c11.072,1.081,17.019,10.051,21.923,7.538
		c4.903-2.513,9.039-4.987,9.91-2.918l0.069,0.134c-1.89,5.889-4.606,10.937-7.717,14.633c-4.071,4.836-8.819,7.358-13.278,6.418
		c-4.459-0.939-7.786-5.162-9.56-11.229c-1.212-4.145-1.699-9.152-1.327-14.561L41.117,26.53z"/>
	<g>
		<g>
			<path fill="#666666" d="M41.482,83.111c-9.906-1.68-17.705-1.46-18.156,0.682c-0.511,2.427,8.601,6.401,20.353,8.876
				c11.752,2.476,21.693,2.515,22.204,0.088c0.45-2.139-6.574-5.479-16.292-7.936"/>
			<path fill="#4D4D4D" d="M59.157,95.164c-0.054,0-0.108,0-0.163,0c-4.234-0.017-9.718-0.69-15.441-1.896
				c-8.794-1.852-21.598-5.938-20.826-9.602c0.654-3.106,10.568-2.566,18.858-1.159c0.333,0.057,0.558,0.373,0.501,0.706
				c-0.056,0.333-0.372,0.557-0.706,0.501c-11.88-2.015-17.23-0.861-17.455,0.204c-0.104,0.495,0.879,1.838,5.224,3.732
				c3.807,1.661,9.012,3.23,14.656,4.419c5.644,1.189,11.04,1.853,15.194,1.869c0.053,0,0.106,0,0.158,0
				c4.614,0,6.024-0.819,6.128-1.309c0.224-1.063-4.193-4.271-15.843-7.217c-0.328-0.083-0.526-0.416-0.444-0.744
				c0.083-0.328,0.416-0.526,0.744-0.443c8.131,2.056,17.394,5.556,16.741,8.656C66.164,94.397,63.699,95.164,59.157,95.164z"/>
		</g>
		<g>
			<g>
				<path fill="#666666" d="M58.073,90.174c-2.297-0.484-4.998-2.096-6.735-5.433c-1.737-3.338-3.352-4.408-1.795-11.799
					c1.286-6.106,1.921-6.77,3.367-10.27c1.446-3.5,2.568-4.444,3.734-5.916c0.012-0.016,0.025-0.029,0.039-0.042
					c0.014-0.013,0.029-0.024,0.044-0.035c3.223-2.185,8.439-7.246,12.091-12.015s5.189-10.824,6.443-16.781
					c0.367-1.743,0.719-3.891,0.975-6.021s1.257-8.234,1.24-9.899c-0.001-0.089-0.029-0.17-0.076-0.233
					c-0.047-0.063-0.113-0.108-0.19-0.124c-0.106-0.022-0.21,0.013-0.289,0.086c-0.079,0.072-0.132,0.181-0.137,0.304
					c-0.059,1.487-1.025,7.003-1.218,8.549c-0.193,1.546-0.455,3.117-0.789,4.703c-1.752,8.319-5.147,15.47-9.218,20.307
					c-4.071,4.836-8.819,7.358-13.278,6.418c-4.459-0.939-7.786-5.162-9.56-11.229c-1.774-6.067-1.995-13.98-0.242-22.299
					c0.334-1.586,0.728-3.129,1.175-4.622c0.447-1.493,1.788-6.93,2.334-8.314c0.045-0.115,0.04-0.236-0.003-0.334
					c-0.043-0.098-0.124-0.172-0.23-0.195l0,0c-0.077-0.016-0.155-0.002-0.223,0.037s-0.127,0.101-0.163,0.182
					c-0.687,1.516-2.234,7.506-2.859,9.558c-0.625,2.051-1.17,4.16-1.537,5.902c-1.255,5.956-2.292,12.116-0.874,17.954
					c1.418,5.838,4.149,12.573,6.217,15.872c0.01,0.016,0.019,0.033,0.027,0.05c0.008,0.017,0.014,0.035,0.019,0.054
					c0.473,1.817,1.119,3.133,1.03,6.92c-0.089,3.786,0.225,4.65-1.062,10.756c-1.557,7.39-3.466,7.718-6.402,10.072
					c-2.936,2.354-6.057,2.739-8.355,2.255"/>
				<path fill="#4D4D4D" d="M58.074,90.786c-0.042,0-0.084-0.004-0.127-0.013c-2.969-0.625-5.576-2.721-7.152-5.75
					c-0.251-0.482-0.499-0.916-0.74-1.336c-1.444-2.522-2.487-4.344-1.112-10.871c1.043-4.953,1.673-6.392,2.627-8.572
					c0.229-0.523,0.488-1.115,0.774-1.806c1.223-2.959,2.23-4.157,3.205-5.316c0.211-0.251,0.411-0.489,0.615-0.746
					c0.03-0.039,0.066-0.077,0.103-0.111c0.04-0.036,0.078-0.067,0.12-0.094c3.377-2.289,8.514-7.397,11.946-11.879
					c3.072-4.011,4.611-8.955,5.749-13.884c-1.866,6.099-4.651,11.499-8.053,15.541c-4.401,5.229-9.329,7.582-13.873,6.623
					c-4.545-0.957-8.104-5.097-10.022-11.657c-1.483-5.071-1.852-11.135-1.099-17.469c-0.947,4.969-1.533,10.113-0.341,15.023
					c1.333,5.486,3.973,12.232,6.141,15.691c0.027,0.043,0.049,0.086,0.069,0.13c0.021,0.049,0.038,0.097,0.051,0.148
					c0.082,0.315,0.169,0.613,0.261,0.929c0.424,1.453,0.863,2.956,0.788,6.157c-0.017,0.747-0.019,1.394-0.021,1.965
					c-0.006,2.379-0.011,3.951-1.054,8.903c-1.375,6.527-3.064,7.774-5.402,9.499c-0.389,0.287-0.792,0.584-1.216,0.924
					c-2.664,2.136-5.895,3.002-8.864,2.376c-0.331-0.07-0.543-0.394-0.473-0.726c0.07-0.331,0.395-0.542,0.725-0.473
					c1.234,0.26,4.47,0.573,7.846-2.133c0.443-0.355,0.856-0.66,1.255-0.954c2.2-1.623,3.652-2.695,4.931-8.766
					c1.017-4.829,1.021-6.351,1.028-8.654c0.002-0.577,0.003-1.231,0.021-1.99c0.07-3.011-0.323-4.358-0.739-5.785
					c-0.087-0.299-0.177-0.608-0.262-0.93c-2.224-3.562-4.918-10.441-6.274-16.022c-1.467-6.041-0.375-12.316,0.87-18.225
					c0.381-1.81,0.932-3.925,1.55-5.955c0.193-0.632,0.471-1.634,0.794-2.795c0.713-2.562,1.6-5.75,2.093-6.837
					c0.09-0.198,0.235-0.358,0.42-0.463c0.199-0.112,0.43-0.149,0.649-0.103c0.297,0.062,0.54,0.262,0.665,0.547
					c0.111,0.251,0.115,0.544,0.012,0.805c-0.342,0.866-1.032,3.475-1.586,5.571c-0.307,1.16-0.572,2.162-0.731,2.694
					c-0.446,1.488-0.837,3.026-1.162,4.572c-1.675,7.95-1.593,15.764,0.231,22.001c1.785,6.106,5.017,9.942,9.099,10.802
					c4.082,0.861,8.587-1.346,12.683-6.214c4.185-4.972,7.412-12.089,9.087-20.039c0.325-1.543,0.588-3.109,0.781-4.653
					c0.069-0.552,0.231-1.577,0.418-2.764c0.338-2.14,0.759-4.804,0.795-5.734c0.011-0.279,0.133-0.546,0.336-0.732
					c0.229-0.21,0.531-0.295,0.829-0.233c0.22,0.046,0.417,0.173,0.555,0.357c0.126,0.168,0.195,0.374,0.197,0.592
					c0.012,1.196-0.463,4.474-0.844,7.109c-0.172,1.189-0.321,2.215-0.4,2.87c-0.253,2.108-0.602,4.265-0.983,6.074
					c-1.245,5.909-2.776,12.092-6.556,17.027c-3.492,4.559-8.731,9.766-12.205,12.13c-0.209,0.262-0.415,0.507-0.614,0.745
					c-0.957,1.138-1.86,2.212-3.01,4.995c-0.29,0.702-0.552,1.301-0.783,1.829c-0.923,2.11-1.534,3.504-2.551,8.333
					c-1.279,6.071-0.382,7.638,0.976,10.011c0.247,0.431,0.501,0.876,0.763,1.379c1.997,3.838,5.084,4.857,6.318,5.117
					c0.331,0.07,0.543,0.394,0.473,0.725C58.611,90.588,58.357,90.786,58.074,90.786z M57.072,57.184c0,0-0.001,0.001-0.001,0.001
					C57.071,57.185,57.072,57.184,57.072,57.184z M57.126,57.132c-0.001,0.001-0.001,0.002-0.002,0.003
					C57.125,57.134,57.126,57.133,57.126,57.132z M45.768,54.744c0,0.001,0,0.002,0.001,0.002
					C45.769,54.745,45.769,54.744,45.768,54.744z"/>
			</g>
		</g>
		<path fill="#666666" d="M76.899,12.458c-0.063,0-0.126-0.006-0.19-0.02L45.646,5.895c-0.496-0.105-0.814-0.592-0.709-1.088
			c0.105-0.496,0.591-0.814,1.088-0.709l31.063,6.543c0.496,0.105,0.814,0.592,0.709,1.088
			C77.706,12.162,77.324,12.458,76.899,12.458z"/>
	</g>
</g>
<g>
</g>
<g>
</g>
<g>
</g>
<g>
</g>
<g>
</g>
<g>
</g>
<g>
</g>
<g>
</g>
<g>
</g>
<g>
</g>
<g>
</g>
</svg>
