<?xml version="1.0" encoding="utf-8"?>
<!-- Generator: Adobe Illustrator 21.0.0, SVG Export Plug-In . SVG Version: 6.00 Build 0)  -->
<svg version="1.1" id="Layer_1" xmlns="http://www.w3.org/2000/svg" xmlns:xlink="http://www.w3.org/1999/xlink" x="0px" y="0px"
	 width="100px" height="100px" viewBox="0 0 100 100" style="enable-background:new 0 0 100 100;" xml:space="preserve">
<style type="text/css">
	.st0{opacity:0.64;fill:#BF4916;enable-background:new    ;}
	.st1{fill:#666666;}
	.st2{fill:#4D4D4D;}
</style>
<g>
	<path class="st0" d="M41.1,26.5c11.1,1.1,17,10.1,21.9,7.5c4.9-2.5,9-5,9.9-2.9l0.1,0.1c-1.9,5.9-4.6,10.9-7.7,14.6
		c-4.1,4.8-8.8,7.4-13.3,6.4c-4.5-0.9-7.8-5.2-9.6-11.2C41.3,37,40.8,32,41.1,26.5L41.1,26.5z"/>
	<g>
		<g>
			<path class="st1" d="M41.5,83.1c-9.9-1.7-17.7-1.5-18.2,0.7c-0.5,2.4,8.6,6.4,20.4,8.9c11.8,2.5,21.7,2.5,22.2,0.1
				c0.4-2.1-6.6-5.5-16.3-7.9"/>
			<path class="st2" d="M59.2,95.2c-0.1,0-0.1,0-0.2,0c-4.2,0-9.7-0.7-15.4-1.9c-8.8-1.9-21.6-5.9-20.8-9.6
				c0.7-3.1,10.6-2.6,18.9-1.2c0.3,0.1,0.6,0.4,0.5,0.7c-0.1,0.3-0.4,0.6-0.7,0.5c-11.9-2-17.2-0.9-17.5,0.2
				c-0.1,0.5,0.9,1.8,5.2,3.7c3.8,1.7,9,3.2,14.7,4.4c5.6,1.2,11,1.9,15.2,1.9c0.1,0,0.1,0,0.2,0c4.6,0,6-0.8,6.1-1.3
				c0.2-1.1-4.2-4.3-15.8-7.2c-0.3-0.1-0.5-0.4-0.4-0.7c0.1-0.3,0.4-0.5,0.7-0.4c8.1,2.1,17.4,5.6,16.7,8.7
				C66.2,94.4,63.7,95.2,59.2,95.2z"/>
		</g>
		<g>
			<g>
				<path class="st1" d="M58.1,90.2c-2.3-0.5-5-2.1-6.7-5.4c-1.7-3.3-3.4-4.4-1.8-11.8c1.3-6.1,1.9-6.8,3.4-10.3
					c1.4-3.5,2.6-4.4,3.7-5.9c0,0,0,0,0,0s0,0,0,0c3.2-2.2,8.4-7.2,12.1-12s5.2-10.8,6.4-16.8c0.4-1.7,0.7-3.9,1-6s1.3-8.2,1.2-9.9
					c0-0.1,0-0.2-0.1-0.2s-0.1-0.1-0.2-0.1c-0.1,0-0.2,0-0.3,0.1c-0.1,0.1-0.1,0.2-0.1,0.3c-0.1,1.5-1,7-1.2,8.5s-0.5,3.1-0.8,4.7
					c-1.8,8.3-5.1,15.5-9.2,20.3c-4.1,4.8-8.8,7.4-13.3,6.4c-4.5-0.9-7.8-5.2-9.6-11.2c-1.8-6.1-2-14-0.2-22.3
					c0.3-1.6,0.7-3.1,1.2-4.6s1.8-6.9,2.3-8.3c0-0.1,0-0.2,0-0.3S45.9,5,45.8,5l0,0c-0.1,0-0.2,0-0.2,0s-0.1,0.1-0.2,0.2
					c-0.7,1.5-2.2,7.5-2.9,9.6c-0.6,2.1-1.2,4.2-1.5,5.9c-1.3,6-2.3,12.1-0.9,18s4.1,12.6,6.2,15.9c0,0,0,0,0,0s0,0,0,0.1
					c0.5,1.8,1.1,3.1,1,6.9c-0.1,3.8,0.2,4.7-1.1,10.8c-1.6,7.4-3.5,7.7-6.4,10.1s-6.1,2.7-8.4,2.3"/>
				<path class="st2" d="M58.1,90.8c0,0-0.1,0-0.1,0c-3-0.6-5.6-2.7-7.2-5.8c-0.3-0.5-0.5-0.9-0.7-1.3c-1.4-2.5-2.5-4.3-1.1-10.9
					c1-5,1.7-6.4,2.6-8.6c0.2-0.5,0.5-1.1,0.8-1.8c1.2-3,2.2-4.2,3.2-5.3c0.2-0.3,0.4-0.5,0.6-0.7c0,0,0.1-0.1,0.1-0.1
					c0,0,0.1-0.1,0.1-0.1c3.4-2.3,8.5-7.4,11.9-11.9c3.1-4,4.6-9,5.7-13.9c-1.9,6.1-4.7,11.5-8.1,15.5c-4.4,5.2-9.3,7.6-13.9,6.6
					c-4.5-1-8.1-5.1-10-11.7c-1.5-5.1-1.9-11.1-1.1-17.5c-0.9,5-1.5,10.1-0.3,15c1.3,5.5,4,12.2,6.1,15.7c0,0,0,0.1,0.1,0.1
					c0,0,0,0.1,0.1,0.1c0.1,0.3,0.2,0.6,0.3,0.9c0.4,1.5,0.9,3,0.8,6.2c0,0.7,0,1.4,0,2c0,2.4,0,4-1.1,8.9c-1.4,6.5-3.1,7.8-5.4,9.5
					c-0.4,0.3-0.8,0.6-1.2,0.9c-2.7,2.1-5.9,3-8.9,2.4c-0.3-0.1-0.5-0.4-0.5-0.7c0.1-0.3,0.4-0.5,0.7-0.5c1.2,0.3,4.5,0.6,7.8-2.1
					c0.4-0.4,0.9-0.7,1.3-1c2.2-1.6,3.7-2.7,4.9-8.8c1-4.8,1-6.4,1-8.7c0-0.6,0-1.2,0-2c0.1-3-0.3-4.4-0.7-5.8
					c-0.1-0.3-0.2-0.6-0.3-0.9c-2.2-3.6-4.9-10.4-6.3-16c-1.5-6-0.4-12.3,0.9-18.2c0.4-1.8,0.9-3.9,1.5-6c0.2-0.6,0.5-1.6,0.8-2.8
					c0.7-2.6,1.6-5.8,2.1-6.8c0.1-0.2,0.2-0.4,0.4-0.5c0.2-0.1,0.4-0.1,0.6-0.1c0.3,0.1,0.5,0.3,0.7,0.5c0.1,0.3,0.1,0.5,0,0.8
					c-0.3,0.9-1,3.5-1.6,5.6c-0.3,1.2-0.6,2.2-0.7,2.7c-0.4,1.5-0.8,3-1.2,4.6c-1.7,8-1.6,15.8,0.2,22c1.8,6.1,5,9.9,9.1,10.8
					c4.1,0.9,8.6-1.3,12.7-6.2c4.2-5,7.4-12.1,9.1-20c0.3-1.5,0.6-3.1,0.8-4.7c0.1-0.6,0.2-1.6,0.4-2.8c0.3-2.1,0.8-4.8,0.8-5.7
					c0-0.3,0.1-0.5,0.3-0.7c0.2-0.2,0.5-0.3,0.8-0.2c0.2,0,0.4,0.2,0.6,0.4c0.1,0.2,0.2,0.4,0.2,0.6c0,1.2-0.5,4.5-0.8,7.1
					c-0.2,1.2-0.3,2.2-0.4,2.9c-0.3,2.1-0.6,4.3-1,6.1c-1.2,5.9-2.8,12.1-6.6,17c-3.5,4.6-8.7,9.8-12.2,12.1
					c-0.2,0.3-0.4,0.5-0.6,0.7c-1,1.1-1.9,2.2-3,5c-0.3,0.7-0.6,1.3-0.8,1.8c-0.9,2.1-1.5,3.5-2.6,8.3c-1.3,6.1-0.4,7.6,1,10
					c0.2,0.4,0.5,0.9,0.8,1.4c2,3.8,5.1,4.9,6.3,5.1c0.3,0.1,0.5,0.4,0.5,0.7C58.6,90.6,58.4,90.8,58.1,90.8z M57.1,57.2L57.1,57.2
					C57.1,57.2,57.1,57.2,57.1,57.2z M57.1,57.1C57.1,57.1,57.1,57.1,57.1,57.1C57.1,57.1,57.1,57.1,57.1,57.1z M45.8,54.7
					C45.8,54.7,45.8,54.7,45.8,54.7C45.8,54.7,45.8,54.7,45.8,54.7z"/>
			</g>
		</g>
		<path class="st1" d="M76.9,12.5c-0.1,0-0.1,0-0.2,0L45.6,5.9c-0.5-0.1-0.8-0.6-0.7-1.1S45.5,4,46,4.1l31.1,6.5
			c0.5,0.1,0.8,0.6,0.7,1.1C77.7,12.2,77.3,12.5,76.9,12.5z"/>
	</g>
</g>
</svg>
