<?xml version="1.0" encoding="iso-8859-1"?>
<!-- Generator: Adobe Illustrator 21.0.0, SVG Export Plug-In . SVG Version: 6.00 Build 0)  -->
<svg version="1.1" id="Layer_1" xmlns="http://www.w3.org/2000/svg" xmlns:xlink="http://www.w3.org/1999/xlink" x="0px" y="0px"
	 width="480px" height="480px" viewBox="0 0 480 480" enable-background="new 0 0 480 480" xml:space="preserve">
<g>
	<path opacity="0.64" fill="#BF4916" d="M162.955,126.486c54.247,5.295,83.386,49.245,107.41,36.933
		c24.024-12.312,44.286-24.433,48.552-14.299l0.337,0.657c-9.26,28.851-22.566,53.584-37.81,71.694
		c-19.945,23.695-43.206,36.05-65.055,31.447c-21.849-4.602-38.149-25.291-46.841-55.018c-5.938-20.31-8.325-44.84-6.503-71.342
		L162.955,126.486z"/>
	<g>
		
			<path fill="#666666" stroke="#4D4D4D" stroke-width="6" stroke-linecap="round" stroke-linejoin="round" stroke-miterlimit="10" d="
			M164.743,403.702c-48.535-8.233-86.745-7.154-88.956,3.341c-2.504,11.889,42.141,31.36,99.719,43.489
			s106.284,12.323,108.788,0.433c2.207-10.478-32.207-26.845-79.82-38.884"/>
		<g>
			
				<path fill="#666666" stroke="#4D4D4D" stroke-width="6" stroke-linecap="round" stroke-linejoin="round" stroke-miterlimit="10" d="
				M246.028,438.306c-11.256-2.371-24.488-10.267-32.999-26.621c-8.511-16.355-16.423-21.598-8.796-57.807
				c6.301-29.914,9.412-33.168,16.498-50.318s12.582-21.773,18.295-28.986c0.06-0.076,0.124-0.144,0.192-0.207
				c0.068-0.062,0.14-0.119,0.218-0.171c15.789-10.703,41.344-35.499,59.241-58.868s25.421-53.034,31.568-82.217
				c1.798-8.538,3.522-19.066,4.775-29.499c1.253-10.433,6.158-40.341,6.073-48.499c-0.005-0.436-0.142-0.833-0.372-1.141
				c-0.23-0.308-0.553-0.527-0.929-0.606c-0.52-0.109-1.03,0.065-1.416,0.419c-0.386,0.353-0.648,0.885-0.672,1.49
				c-0.288,7.285-5.02,34.309-5.966,41.885c-0.947,7.575-2.23,15.272-3.867,23.042c-8.586,40.76-25.216,75.796-45.161,99.492
				c-19.945,23.695-43.206,36.05-65.055,31.447c-21.849-4.602-38.149-25.291-46.841-55.018s-9.774-68.495-1.188-109.255
				c1.637-7.77,3.567-15.331,5.757-22.644c2.19-7.314,8.762-33.951,11.437-40.732c0.222-0.563,0.197-1.155-0.014-1.634
				c-0.211-0.479-0.607-0.845-1.127-0.954l0,0c-0.376-0.079-0.759-0.009-1.094,0.18c-0.335,0.189-0.621,0.497-0.801,0.894
				c-3.368,7.43-10.945,36.776-14.008,46.827s-5.732,20.38-7.53,28.918c-6.147,29.183-11.229,59.363-4.281,87.965
				s20.33,61.601,30.459,77.763c0.049,0.079,0.093,0.16,0.13,0.245c0.037,0.085,0.068,0.173,0.092,0.267
				c2.318,8.904,5.482,15.352,5.048,33.903c-0.434,18.551,1.1,22.783-5.202,52.698c-7.627,36.208-16.983,37.815-31.368,49.346
				c-14.385,11.532-29.678,13.419-40.934,11.047"/>
		</g>
		
			<line fill="#666666" stroke="#666666" stroke-width="9" stroke-linecap="round" stroke-linejoin="round" stroke-miterlimit="10" x1="186.071" y1="20.985" x2="338.262" y2="53.044"/>
	</g>
</g>
<g>
	<path opacity="0.64" fill="#BF4916" d="M622.955,126.486c54.247,5.295,83.386,49.245,107.41,36.933
		c24.024-12.312,44.286-24.433,48.552-14.299l0.337,0.657c-9.26,28.851-22.566,53.584-37.81,71.694
		c-19.945,23.695-43.206,36.05-65.055,31.447c-21.849-4.602-38.149-25.291-46.841-55.018c-5.938-20.31-8.325-44.84-6.503-71.342
		L622.955,126.486z"/>
	<g>
		
			<path fill="#666666" stroke="#4D4D4D" stroke-width="6" stroke-linecap="round" stroke-linejoin="round" stroke-miterlimit="10" d="
			M624.743,403.702c-48.535-8.233-86.745-7.154-88.956,3.341c-2.505,11.889,42.141,31.36,99.719,43.489
			c57.578,12.129,106.284,12.323,108.788,0.433c2.207-10.478-32.207-26.845-79.82-38.884"/>
		<g>
			
				<path fill="#666666" stroke="#4D4D4D" stroke-width="6" stroke-linecap="round" stroke-linejoin="round" stroke-miterlimit="10" d="
				M706.028,438.306c-11.256-2.371-24.488-10.267-32.999-26.621c-8.511-16.355-16.424-21.598-8.796-57.807
				c6.301-29.914,9.412-33.168,16.498-50.318s12.582-21.773,18.295-28.986c0.06-0.076,0.124-0.144,0.192-0.207
				c0.068-0.062,0.141-0.119,0.218-0.171c15.789-10.703,41.344-35.499,59.241-58.868c17.896-23.368,25.421-53.034,31.568-82.217
				c1.798-8.538,3.522-19.066,4.775-29.499c1.253-10.433,6.158-40.341,6.073-48.499c-0.005-0.436-0.142-0.833-0.372-1.141
				c-0.23-0.308-0.553-0.527-0.929-0.606c-0.52-0.109-1.03,0.065-1.416,0.419c-0.386,0.353-0.648,0.885-0.672,1.49
				c-0.288,7.285-5.02,34.309-5.966,41.885c-0.947,7.575-2.23,15.272-3.867,23.042c-8.586,40.76-25.216,75.796-45.161,99.492
				s-43.206,36.05-65.055,31.447c-21.849-4.602-38.149-25.291-46.841-55.018c-8.691-29.728-9.774-68.495-1.188-109.255
				c1.637-7.77,3.567-15.331,5.757-22.644s8.762-33.951,11.437-40.732c0.222-0.563,0.197-1.155-0.014-1.634
				c-0.211-0.479-0.607-0.845-1.127-0.954l0,0c-0.376-0.079-0.759-0.009-1.094,0.18c-0.335,0.189-0.621,0.497-0.801,0.894
				c-3.368,7.43-10.945,36.776-14.008,46.827c-3.062,10.052-5.732,20.38-7.53,28.918c-6.147,29.183-11.229,59.363-4.281,87.965
				s20.33,61.601,30.459,77.763c0.049,0.079,0.093,0.16,0.13,0.245c0.037,0.085,0.068,0.173,0.092,0.267
				c2.318,8.904,5.482,15.352,5.048,33.903c-0.434,18.551,1.1,22.783-5.202,52.698c-7.627,36.208-16.983,37.815-31.368,49.346
				c-14.385,11.532-29.678,13.419-40.934,11.047"/>
		</g>
		
			<line fill="#666666" stroke="#666666" stroke-width="9" stroke-linecap="round" stroke-linejoin="round" stroke-miterlimit="10" x1="646.071" y1="20.985" x2="798.262" y2="53.044"/>
	</g>
</g>
<g>
	<path opacity="0.64" fill="#BF4916" d="M-316.076,155.5c54.174-6,91.746,31,112.716,14s38.298-33.037,44.562-24l0.465,0.574
		c-3.114,30.14-11.036,57.085-22.22,77.948c-14.633,27.298-34.847,44.182-57.176,44.182s-42.543-16.884-57.176-44.182
		c-9.997-18.65-17.389-42.161-21.068-68.47L-316.076,155.5z"/>
	<g>
		
			<path fill="#FFFFFF" stroke="#808080" stroke-width="5" stroke-linecap="round" stroke-linejoin="round" stroke-miterlimit="10" d="
			M-257.184,426.394c-49.19,1.948-86.357,10.88-86.357,21.606c0,12.15,47.7,22,106.541,22s106.541-9.85,106.541-22
			c0-10.708-37.049-19.629-86.121-21.596"/>
		<g>
			
				<path fill="#FFFFFF" stroke="#808080" stroke-width="5" stroke-linecap="round" stroke-linejoin="round" stroke-miterlimit="10" d="
				M-170.513,443.5c-11.503,0-26.078-4.998-37.777-19.248c-11.699-14.249-20.523-17.749-20.523-54.752
				c0-30.571,2.373-34.396,5.772-52.638c3.399-18.242,7.824-23.899,11.928-32.135c0.043-0.087,0.092-0.167,0.145-0.242
				c0.054-0.075,0.113-0.145,0.178-0.213c13.244-13.727,33.139-43.259,45.834-69.815s13.943-57.135,13.943-86.958
				c0-8.725-0.483-19.382-1.408-29.849c-0.925-10.467-2.29-40.744-4.054-48.709c-0.094-0.426-0.311-0.786-0.599-1.04
				c-0.289-0.254-0.65-0.401-1.034-0.401c-0.531,0-0.994,0.276-1.299,0.701c-0.305,0.425-0.452,1-0.351,1.597
				c1.22,7.188,2.16,34.607,2.796,42.215c0.635,7.608,0.966,15.404,0.966,23.345c0,41.655-9.05,79.366-23.683,106.664
				c-14.633,27.298-34.847,44.182-57.176,44.182s-42.543-16.884-57.176-44.182s-23.683-65.009-23.683-106.664
				c0-7.941,0.33-15.737,0.966-23.345c0.635-7.608,1.576-35.028,2.796-42.215c0.101-0.597-0.046-1.171-0.351-1.597
				s-0.768-0.701-1.299-0.701l0,0c-0.384,0-0.745,0.147-1.034,0.401c-0.289,0.254-0.505,0.614-0.599,1.04
				c-1.764,7.965-3.13,38.242-4.054,48.709s-1.408,21.124-1.408,29.849c0,29.823,1.248,60.403,13.943,86.958
				c12.695,26.556,32.591,56.087,45.834,69.815c0.065,0.067,0.124,0.137,0.178,0.212c0.054,0.075,0.102,0.155,0.145,0.242
				c4.104,8.235,8.529,13.893,11.928,32.135c3.399,18.242,5.772,22.067,5.772,52.638c0,37.003-8.824,40.503-20.523,54.752
				c-11.699,14.249-26.274,19.248-37.777,19.248"/>
		</g>
		
			<line fill="none" stroke="#808080" stroke-width="5" stroke-linecap="round" stroke-linejoin="round" stroke-miterlimit="10" x1="-315.202" y1="47.5" x2="-159.672" y2="47.5"/>
	</g>
</g>
<g>
</g>
<g>
</g>
<g>
</g>
<g>
</g>
<g>
</g>
<g>
</g>
<g>
</g>
<g>
</g>
<g>
</g>
<g>
</g>
<g>
</g>
</svg>
